<svg width="1440" height="206" viewBox="0 0 1440 206" fill="none" xmlns="http://www.w3.org/2000/svg">
<g filter="url(#filter0_d_26_3)">
<path fill-rule="evenodd" clip-rule="evenodd" d="M231.841 98.753C195.562 151.457 134.877 186 66.1385 186C-44.9472 186 -135 95.7854 -135 -15.5C-135 -126.785 -44.9472 -217 66.1385 -217C134.877 -217 195.562 -182.457 231.841 -129.753C268.119 -182.457 328.804 -217 397.543 -217C463.22 -217 521.545 -185.465 558.254 -136.685C594.963 -185.465 653.288 -217 718.965 -217C784.271 -217 842.308 -185.821 879.052 -137.511C915.796 -185.821 973.832 -217 1039.14 -217C1108.38 -217 1169.46 -181.946 1205.64 -128.585C1241.82 -181.946 1302.89 -217 1372.14 -217C1483.22 -217 1573.28 -126.785 1573.28 -15.5C1573.28 95.7854 1483.22 186 1372.14 186C1302.89 186 1241.82 150.946 1205.64 97.5852C1169.46 150.946 1108.38 186 1039.14 186C973.832 186 915.796 154.821 879.052 106.511C842.308 154.821 784.271 186 718.965 186C653.288 186 594.963 154.465 558.254 105.685C521.545 154.465 463.22 186 397.543 186C328.804 186 268.119 151.457 231.841 98.753Z" fill="white"/>
</g>
<defs>
<filter id="filter0_d_26_3" x="-145" y="-217" width="1728.28" height="423" filterUnits="userSpaceOnUse" color-interpolation-filters="sRGB">
<feFlood flood-opacity="0" result="BackgroundImageFix"/>
<feColorMatrix in="SourceAlpha" type="matrix" values="0 0 0 0 0 0 0 0 0 0 0 0 0 0 0 0 0 0 127 0" result="hardAlpha"/>
<feOffset dy="10"/>
<feGaussianBlur stdDeviation="5"/>
<feComposite in2="hardAlpha" operator="out"/>
<feColorMatrix type="matrix" values="0 0 0 0 0.937255 0 0 0 0 0.384314 0 0 0 0 0.521569 0 0 0 0.25 0"/>
<feBlend mode="normal" in2="BackgroundImageFix" result="effect1_dropShadow_26_3"/>
<feBlend mode="normal" in="SourceGraphic" in2="effect1_dropShadow_26_3" result="shape"/>
</filter>
</defs>
</svg>
